<svg viewBox="0 0 370 304" fill="none" xmlns="http://www.w3.org/2000/svg">
<path d="M0.026123 301.068C0.026123 301.068 8.89771 301.068 13.6622 299.068C13.6622 299.068 27.7415 300.516 27.2063 295.497C26.6711 290.478 23.7276 284.455 27.2063 287.215C30.6851 289.976 30.6851 297.253 32.1568 294.116C33.6286 290.98 31.6216 283.953 34.1638 286.588C36.5721 289.097 42.9663 294.116 55.9082 282.58M90.8993 277.18C95.4484 275.298 101.445 274.93 116.304 269.98C123.601 267.008 137.148 265.241 154.65 264.621M322.895 280.33C273.51 270.184 213.185 264.917 170.468 264.621" stroke="#011B26"/>
<path d="M159.532 180.56C159.264 180.56 158.997 180.435 158.863 180.31C156.722 177.549 152.976 169.519 152.575 165.754C152.173 161.99 154.448 153.207 154.581 152.83C154.715 152.454 155.117 152.203 155.518 152.328C155.919 152.454 156.187 152.83 156.053 153.207C156.053 153.332 153.779 162.241 154.18 165.629C154.581 169.017 158.328 176.922 160.201 179.431C160.469 179.808 160.335 180.184 160.067 180.435C159.8 180.56 159.666 180.56 159.532 180.56Z" fill="#011B26"/>
<path d="M170.503 262.622L165.419 262.245C170.905 260.865 174.383 252.458 176.524 246.812C176.926 245.683 177.327 244.679 177.728 243.8C179.601 239.158 179.735 224.603 179.735 219.082C178.932 216.447 176.792 210.047 175.32 208.04C174.651 207.161 174.383 206.158 174.651 205.154C175.186 203.021 177.461 201.64 179.468 200.511C180.137 200.135 181.073 199.633 181.475 199.256C181.876 196.621 185.221 195.743 187.763 195.116C188.566 194.865 189.235 194.739 189.904 194.488C192.312 192.481 202.748 173.659 205.023 163.496C207.03 154.963 203.685 151.952 203.685 151.952L206.762 148.689C207.298 149.191 212.248 153.332 209.706 164.499C207.699 173.157 196.326 196.872 191.911 198.504C190.974 198.88 190.038 199.131 189.101 199.382C188.164 199.633 186.693 200.009 186.158 200.26C185.89 202.017 184.017 203.146 182.144 204.275C181.341 204.777 180.137 205.53 179.601 206.032C181.742 209.42 184.284 217.45 184.552 218.329L184.686 218.831C184.686 220.838 185.087 239.032 182.411 245.432C182.01 246.31 181.608 247.314 181.341 248.318C178.531 254.717 178.397 260.614 170.503 262.622Z" fill="#EC7C25"/>
<path d="M256.802 219.082C253.19 217.45 243.69 215.694 237.937 214.564C235.529 214.062 233.388 213.686 231.782 213.31C228.437 212.557 226.029 213.435 224.022 214.188C223.219 214.439 222.55 214.69 221.881 214.941C218.938 215.568 217.065 212.933 215.593 211.051C215.459 210.8 215.325 210.549 215.058 210.424C213.184 211.427 210.776 212.808 208.368 212.18C207.297 211.929 206.361 211.176 205.826 210.173C205.157 208.918 204.755 207.538 204.488 206.283C204.086 204.526 203.685 203.397 202.882 202.77C199.671 200.386 199.671 199.256 199.671 199.005L202.079 195.366C202.079 195.366 203.952 198.001 205.826 199.382C208.1 201.013 208.635 203.271 209.17 205.279C209.438 206.283 209.706 207.161 210.107 208.04C210.776 207.914 212.382 207.161 212.917 206.785C213.72 206.283 214.389 206.032 215.058 205.781C217.198 205.279 218.403 207.036 219.607 208.667C220.008 209.294 220.811 210.298 221.346 210.675C221.747 210.549 222.149 210.424 222.55 210.298C224.825 209.42 228.437 208.04 233.254 209.294C234.726 209.671 236.733 210.047 239.141 210.549C245.43 211.804 251.45 213.435 255.598 215.317L256.802 219.082Z" fill="#EC7C25"/>
<path d="M283.161 242.671C283.027 242.671 282.893 242.671 282.759 242.545C274.062 237.275 254.662 235.77 254.394 235.77C253.993 235.77 253.591 235.393 253.725 235.017C253.725 234.64 254.127 234.264 254.528 234.389C255.331 234.389 274.598 235.895 283.562 241.416C283.963 241.667 283.963 242.044 283.83 242.42C283.696 242.545 283.428 242.671 283.161 242.671Z" fill="#011B26"/>
<path d="M276.203 228.492C275.668 228.492 275.133 228.367 274.464 228.241C271.654 227.488 257.07 220.085 256.535 219.834C256.134 219.583 256 219.207 256.267 218.83C256.535 218.454 256.936 218.329 257.338 218.58C262.556 221.215 272.858 226.359 274.999 226.861C276.203 227.112 276.605 227.112 276.738 226.986C276.872 226.61 277.14 226.485 277.541 226.485C277.943 226.485 278.344 226.861 278.344 227.237C278.344 227.488 278.21 227.865 277.809 228.241C277.14 228.367 276.738 228.492 276.203 228.492Z" fill="#011B26"/>
<path d="M284.231 218.705C284.231 218.705 276.873 225.481 276.873 226.108C276.873 226.736 282.091 231.253 282.492 232.633C282.893 234.139 286.372 232.257 287.309 232.633C288.245 233.009 288.112 235.519 285.436 236.146C282.76 236.648 282.893 243.173 283.83 244.177C284.767 245.055 293.062 249.07 297.745 253.588C302.428 258.105 304.97 262.622 306.843 263.375C308.716 264.127 310.723 264.629 311.258 260.991C311.794 257.352 312.463 249.572 307.378 243.926C302.294 238.279 300.153 237.778 298.682 237.778C297.076 237.778 294.668 237.903 295.604 236.021C296.541 234.013 298.682 232.257 297.879 230.625C297.21 228.869 291.323 218.203 284.231 218.705Z" fill="#011B26"/>
<path d="M311.259 266.135C309.653 266.135 308.716 265.257 308.449 264.755C308.315 264.379 308.449 264.002 308.85 263.751C309.252 263.626 309.653 263.751 309.921 264.128C309.921 264.253 310.456 265.006 312.195 264.629C314.47 264.128 316.209 263.5 316.611 260.991C317.146 258.23 316.744 250.702 313.266 245.306C311.526 242.546 309.118 240.413 307.111 238.781C304.97 236.899 303.365 235.519 303.231 233.888C303.231 233.386 303.231 232.759 303.097 232.131C303.097 230.124 302.963 227.99 301.759 225.606C300.02 222.344 295.872 218.078 291.858 216.447C288.246 215.066 286.64 215.694 285.168 218.956C285.034 219.333 284.499 219.458 284.098 219.333C283.696 219.207 283.563 218.705 283.696 218.329C285.57 214.313 288.112 213.31 292.393 215.066C296.809 216.823 301.224 221.34 303.097 224.853C304.569 227.614 304.569 229.873 304.703 232.006C304.703 232.508 304.703 233.135 304.836 233.637C304.97 234.641 306.442 236.021 308.181 237.527C310.188 239.283 312.73 241.542 314.604 244.428C318.617 250.451 318.751 258.481 318.216 261.116C317.547 264.504 315.139 265.257 312.597 265.884C311.928 266.01 311.526 266.135 311.259 266.135Z" fill="#011B26"/>
<path d="M173.313 152.203C169.567 152.203 162.609 151.701 158.997 148.564C156.99 146.933 156.053 145.552 155.25 144.298C154.581 143.294 153.912 142.415 152.708 141.412C149.765 138.777 150.969 135.765 150.969 135.64C151.102 135.263 151.638 135.138 152.039 135.263C152.44 135.389 152.574 135.891 152.44 136.142C152.44 136.267 151.504 138.4 153.778 140.282C155.116 141.412 155.785 142.416 156.454 143.419C157.257 144.549 158.194 145.803 159.933 147.435C163.68 150.697 171.975 150.697 174.383 150.571C174.785 150.571 175.186 150.822 175.186 151.324C175.186 151.701 174.919 152.077 174.383 152.077C174.25 152.203 173.714 152.203 173.313 152.203Z" fill="#011B26"/>
<path d="M179.066 158.727C171.439 158.727 164.081 157.347 160.067 155.967C151.905 152.955 152.039 149.693 152.44 148.815C152.574 148.438 152.708 148.187 152.842 147.811C153.109 147.058 153.243 146.807 152.842 146.054C151.771 144.548 152.574 141.161 152.708 140.784C152.842 140.408 153.243 140.157 153.644 140.282C154.046 140.408 154.313 140.784 154.18 141.161C153.778 142.415 153.511 144.548 154.046 145.301C154.982 146.556 154.581 147.434 154.18 148.313C154.046 148.564 153.912 148.815 153.912 149.191C153.511 150.446 155.116 152.579 160.736 154.587C167.426 157.096 184.552 159.229 194.586 154.587C210.91 147.183 212.114 144.423 212.114 143.796C212.114 143.168 211.98 142.541 211.98 141.788C211.713 139.78 211.445 137.522 212.248 135.765C213.184 133.507 214.121 131.373 213.184 128.613C212.515 126.605 212.382 123.719 212.248 120.959C212.114 119.202 212.114 117.571 211.846 116.442C211.311 112.928 210.107 110.419 209.706 110.168C209.438 109.917 209.304 109.415 209.572 109.164C209.839 108.913 210.375 108.788 210.642 109.039C211.713 109.917 212.917 113.43 213.318 116.316C213.586 117.571 213.586 119.328 213.72 120.959C213.853 123.719 213.987 126.48 214.656 128.237C215.726 131.499 214.656 134.008 213.72 136.267C213.051 137.773 213.318 139.78 213.586 141.788C213.72 142.541 213.72 143.168 213.72 143.921C213.853 145.552 211.98 148.564 195.389 156.092C190.573 157.974 184.819 158.727 179.066 158.727Z" fill="#011B26"/>
<path d="M248.775 159.982C244.761 159.982 240.479 159.104 238.473 158.728C235.395 158.1 234.726 154.211 234.325 151.45C234.191 150.446 233.923 148.815 233.656 148.69C231.783 147.56 231.515 146.556 231.515 143.796C231.515 142.416 230.712 141.412 229.642 140.157C229.107 139.404 228.438 138.651 227.902 137.648C226.832 135.64 223.086 125.727 224.022 122.841C224.691 120.834 222.015 116.317 217.734 114.811C213.051 113.054 203.819 107.659 203.418 107.533C203.016 107.282 202.882 106.906 203.15 106.53C203.418 106.153 203.819 106.028 204.22 106.279C204.354 106.279 213.854 111.8 218.269 113.431C223.22 115.187 226.297 120.457 225.494 123.218C224.825 125.351 227.902 134.385 229.374 137.02C229.776 137.899 230.445 138.526 230.98 139.279C232.05 140.534 233.121 141.914 233.121 143.796C233.121 146.305 233.388 146.682 234.592 147.435C235.395 147.937 235.663 149.317 235.93 151.199C236.332 153.709 236.867 156.846 238.874 157.347C246.099 158.853 254.127 159.355 255.063 156.595C255.732 154.336 255.465 150.697 255.197 147.435C255.063 145.051 254.796 142.918 255.063 141.412C255.465 139.153 251.049 123.72 248.374 114.56C247.036 110.043 246.099 106.53 245.831 105.149C244.895 101.009 217.868 82.689 210.91 80.054C204.889 77.7955 196.059 74.784 187.496 75.035C187.228 75.035 187.094 74.9095 186.827 74.784C185.355 73.1528 183.348 71.3962 182.545 71.0197C182.411 71.1452 182.278 71.2707 182.01 71.5217C180.137 73.4038 175.855 77.7955 169.701 77.0426C164.349 76.4152 161.271 75.2859 159.8 74.6586C159.8 75.2859 159.666 75.9133 159.131 76.4152L158.997 76.5407C158.863 76.6662 155.652 78.4228 146.955 77.7955C138.526 77.0426 133.843 76.6662 125.815 69.1376C123.541 67.0045 120.865 64.3695 118.189 61.7345C111.633 55.3352 104.274 48.0576 101.464 46.8028C98.2528 45.2971 92.4995 44.6697 90.3587 44.5443C90.0911 46.8028 88.887 53.5785 82.8661 55.8371C82.8661 56.7155 83.2675 59.3505 87.0138 63.9931C87.549 64.6205 88.218 65.4988 89.0208 66.5026C95.3092 74.2821 109.893 92.3507 114.576 94.2329C116.048 94.8602 118.59 95.6131 121.4 96.6169C129.294 99.2519 138.927 102.514 141.871 105.275C144.279 107.533 146.42 116.317 148.293 124.096C149.363 128.613 150.568 133.256 151.237 134.009C152.173 135.138 154.314 136.142 155.919 136.895C157.659 137.648 158.595 138.15 158.997 138.777C159.264 139.153 159.131 139.53 158.729 139.781C158.328 140.032 157.926 139.906 157.659 139.53C157.391 139.279 156.187 138.651 155.117 138.15C153.377 137.271 151.103 136.267 149.899 134.887C149.096 133.883 148.159 130.37 146.687 124.347C145.082 117.571 142.807 108.286 140.667 106.279C137.991 103.769 128.09 100.381 120.731 97.9971C117.787 96.9933 115.379 96.115 113.773 95.6131C108.689 93.6055 94.5065 75.9133 87.549 67.3809C86.7462 66.3771 86.0772 65.4988 85.542 64.8714C80.4577 58.5976 80.9929 55.4607 81.1267 55.2097C81.1267 54.9588 81.3943 54.8333 81.6619 54.7078C88.3518 52.5747 88.6194 43.9169 88.6194 43.9169C88.6194 43.6659 88.7532 43.5404 88.887 43.415C89.1546 42.6621 89.4222 42.6621 89.556 42.6621C89.8235 42.6621 97.7176 43.164 101.999 45.1716C105.076 46.5519 112.168 53.5785 119.125 60.3543C121.935 63.1147 124.477 65.6243 126.752 67.7574C134.378 74.9095 138.66 75.2859 146.955 76.0388C154.314 76.6662 157.391 75.4114 157.926 75.1605C158.06 74.9095 158.06 74.4076 158.06 74.0312C158.06 73.6547 158.06 72.6509 158.997 72.6509C159.264 72.6509 159.398 72.7764 159.933 72.9019C161.271 73.4038 164.215 74.6586 169.701 75.2859C175.053 75.9133 179.066 71.8981 180.672 70.2669C181.207 69.765 181.475 69.514 181.742 69.3886C182.144 69.1376 183.08 68.7612 187.496 73.4038C196.192 73.2783 205.157 76.2897 211.178 78.5483C218.135 81.1833 245.831 99.6283 247.036 104.773C247.303 106.153 248.373 109.666 249.578 114.184C253.458 127.86 256.669 139.279 256.268 141.663C256 142.918 256.268 145.051 256.401 147.309C256.669 150.697 257.07 154.461 256.268 156.971C255.599 159.23 252.387 159.982 248.775 159.982Z" fill="#011B26"/>
<path d="M169.433 82.9398C166.891 82.9398 164.482 82.5634 162.342 81.8105C154.581 79.301 154.715 76.917 154.849 76.4151C154.983 76.0386 155.384 75.7877 155.786 75.7877C156.187 75.9132 156.455 76.1641 156.455 76.5405C156.455 76.666 156.722 78.2972 163.011 80.3048C169.968 82.5634 179.869 81.3086 186.693 73.5291C186.96 73.2782 187.496 73.1527 187.763 73.4036C188.031 73.6546 188.165 74.1565 187.897 74.4074C182.545 80.5558 175.721 82.9398 169.433 82.9398Z" fill="#011B26"/>
<path opacity="0.5" d="M101.731 25.4719L5.79858 9.66187L94.5064 12.5478L101.731 25.4719Z" fill="#EC7C25"/>
<path opacity="0.3" d="M85.9434 12.2967V8.28149L5.79858 9.66173L85.9434 12.2967Z" fill="#EC7C25"/>
<path opacity="0.5" d="M91.1614 8.15597L74.5705 0L5.79858 9.66168L91.1614 8.15597Z" fill="#EC7C25"/>
<path d="M82.0633 55.586C81.7957 55.586 81.6619 55.4606 81.5281 55.3351C81.3943 55.2096 69.6202 42.411 66.1414 39.776C65.4725 39.2741 64.6697 38.6467 63.8669 38.0194C60.6557 35.6353 57.177 32.8748 53.5645 31.3691C48.7478 29.487 42.5931 20.2017 42.3255 19.8253C42.0579 19.4489 42.1917 19.0724 42.5931 18.8215C42.9945 18.5705 43.3959 18.696 43.6635 19.0724C43.6635 19.1979 49.8182 28.3577 54.2335 30.1143C58.1136 31.6201 61.7261 34.506 64.9373 36.8901C65.74 37.5174 66.409 38.0194 67.2118 38.5213C70.8243 41.1563 82.3309 53.7039 82.8661 54.2058C83.1337 54.4567 83.1337 54.9586 82.7323 55.2096C82.4647 55.586 82.1971 55.586 82.0633 55.586Z" fill="#011B26"/>
<path d="M58.5147 18.1943L7.93921 9.66187L60.3878 24.4681L58.5147 18.1943Z" fill="#EC7C25"/>
<path d="M68.1483 26.7264L87.0138 31.9964L88.3518 23.3385L66.0076 19.5742C66.0076 19.5742 66.5428 22.3347 66.8104 23.3385C66.9442 24.3423 68.1483 26.7264 68.1483 26.7264Z" fill="#EC7C25"/>
<path d="M162.609 75.4113C162.476 75.4113 162.476 75.4113 162.342 75.4113C161.94 75.2859 161.673 74.9094 161.807 74.533C161.807 74.533 163.278 69.6394 161.807 66.377C161.673 66.0006 161.807 65.6242 162.208 65.3732C162.609 65.2477 163.011 65.3732 163.278 65.7497C164.884 69.5139 163.412 74.6585 163.278 74.9094C163.278 75.1604 163.011 75.4113 162.609 75.4113Z" fill="#011B26"/>
<path d="M179.869 72.9016C179.602 72.9016 179.334 72.7761 179.2 72.6506C177.059 69.8902 173.581 65.1221 173.714 63.7418C173.714 63.3654 174.116 62.989 174.517 63.1145C174.919 63.1145 175.32 63.4909 175.186 63.8673C175.186 64.6202 177.996 68.5099 180.404 71.7723C180.672 72.1487 180.538 72.5252 180.271 72.7761C180.271 72.7761 180.003 72.9016 179.869 72.9016Z" fill="#011B26"/>
<path d="M266.436 185.83C266.302 185.83 266.034 185.83 265.901 185.83C263.76 185.328 255.331 177.298 253.859 175.415C252.387 173.533 250.246 172.53 249.443 172.153C248.908 172.655 247.972 174.412 247.838 175.917C247.704 177.8 247.436 179.556 246.232 180.309C245.831 180.56 245.162 180.811 244.359 180.56C241.951 179.933 242.352 177.8 242.887 174.914L243.021 173.91C243.423 171.526 244.894 169.016 245.697 167.51C245.965 167.134 246.098 166.758 246.232 166.507C245.563 165.503 243.155 161.613 241.416 158.978C241.148 158.602 241.282 158.225 241.683 157.974C242.085 157.723 242.486 157.849 242.754 158.225C243.556 159.48 247.57 165.628 247.838 166.005C248.105 166.507 247.838 166.883 247.169 168.138C246.366 169.518 245.028 171.902 244.627 174.035L244.493 175.039C243.958 178.05 243.958 178.803 244.894 179.054C245.296 179.18 245.43 179.054 245.43 179.054C246.099 178.552 246.366 176.419 246.366 175.666C246.5 173.533 247.838 171.275 248.774 170.647C249.176 170.396 249.577 170.396 249.711 170.522C250.514 170.773 253.324 172.153 255.063 174.412C257.07 176.921 264.964 184.073 266.168 184.324C266.302 184.324 266.57 184.324 266.57 184.199C266.703 183.948 266.57 183.07 265.365 182.066C263.894 180.811 258.809 174.537 259.211 173.031C259.344 172.655 259.612 172.53 259.88 172.404C260.549 172.279 261.351 172.78 265.499 176.168C267.64 177.925 270.851 180.56 271.654 180.685C272.055 180.811 272.457 180.811 272.59 180.811C272.457 180.685 272.323 180.435 272.055 180.058C271.386 179.18 270.182 177.925 268.844 176.67C267.105 174.788 265.365 173.031 264.83 172.028C264.563 171.651 264.83 171.275 265.098 171.024C265.499 170.898 265.901 171.024 266.168 171.275C266.703 172.153 268.443 174.035 270.048 175.541C271.386 176.921 272.59 178.176 273.259 179.054C273.928 179.933 274.597 180.936 274.062 181.564C273.527 182.317 272.457 182.191 271.386 181.94C270.182 181.689 268.041 179.933 264.563 177.047C263.626 176.294 262.556 175.29 261.619 174.663C262.823 176.545 265.098 179.556 266.57 180.685C268.041 181.94 268.71 183.446 268.041 184.575C267.774 185.579 267.239 185.83 266.436 185.83Z" fill="#011B26"/>
<path d="M274.33 179.807C273.26 179.807 271.922 179.305 271.253 178.929C270.852 178.678 270.718 178.302 270.985 177.925C271.253 177.549 271.654 177.423 272.056 177.674C272.992 178.176 274.464 178.427 274.732 178.302C274.732 178.302 274.732 178.302 274.732 178.176C274.732 178.176 274.732 177.8 273.26 176.42C271.119 174.537 267.908 170.522 266.57 168.891C266.302 168.64 266.302 168.138 266.57 167.887C267.507 166.883 275.401 170.271 275.534 170.397C275.668 170.397 275.668 170.397 275.668 170.397C275.668 170.397 275.668 169.769 274.732 169.016C273.528 168.138 266.57 165.754 256.268 162.617H256.134C253.993 161.99 253.057 159.104 252.923 158.727C252.789 158.351 253.057 157.975 253.458 157.849C253.859 157.724 254.261 157.975 254.395 158.351C254.662 158.978 255.465 160.86 256.535 161.237H256.669C264.296 163.495 273.795 166.507 275.668 167.887C277.408 169.267 277.408 170.522 277.006 171.15C276.605 171.777 275.668 172.028 274.866 171.651C274.063 171.275 271.119 170.146 269.112 169.518C270.584 171.4 272.859 174.035 274.464 175.416C275.802 176.67 276.471 177.549 276.471 178.302C276.471 178.929 275.936 179.305 275.802 179.431C275.133 179.682 274.732 179.807 274.33 179.807Z" fill="#011B26"/>
<path d="M151.504 12.2965C151.504 12.2965 141.871 14.5551 140.666 19.5741C139.328 24.4677 140.666 29.6122 144.814 29.1103C148.962 28.6084 154.314 25.2205 157.926 25.4715C161.539 25.7224 160.736 26.9772 159.532 29.1103C158.194 31.2434 160.602 34.8822 167.024 33.251C173.447 31.4944 173.714 28.3575 178.397 29.6122C183.08 30.867 178.799 40.7796 179.869 42.1598C180.939 43.6655 181.207 45.5477 183.615 42.1598C186.158 38.772 189.77 34.1294 193.65 35.3841C197.53 36.6389 190.038 43.6655 186.158 45.0458C182.277 46.5515 182.277 46.5515 182.277 46.5515C182.277 46.5515 180.672 56.7151 178.397 58.2208C178.397 58.2208 193.918 56.3386 199.805 51.1941C205.692 46.0496 200.608 46.0496 201.678 43.4146C202.748 40.7796 208.635 40.5286 208.635 37.2663C208.635 34.0039 207.833 34.5058 202.481 31.9963C196.995 29.6122 198.601 28.3575 199.403 27.1027C200.206 25.8479 201.009 23.7148 196.594 22.4601C192.178 21.2053 181.876 18.3194 183.749 15.6844C185.756 13.0494 186.693 7.65388 180.003 8.15578C173.313 8.65769 167.025 12.6729 163.144 12.2965C159.264 11.9201 155.786 10.9163 151.504 12.2965Z" fill="#011B26"/>
<path d="M164.215 67.1299H164.081C163.68 67.0044 163.011 66.8789 162.342 66.7535C157.793 65.8751 148.427 63.8675 143.476 60.6051C137.322 56.5899 138.526 46.4263 139.596 43.1639C140.666 40.027 143.209 28.9851 143.209 28.9851C143.209 28.7341 143.342 28.6087 143.61 28.4832C143.744 28.3577 144.011 28.3577 144.145 28.3577C144.413 28.3577 144.547 28.3577 144.547 28.4832C144.68 28.4832 144.68 28.4832 144.814 28.3577C146.554 28.1068 148.694 27.3539 150.701 26.6011C153.377 25.5972 155.919 24.5934 158.194 24.7189C159.398 24.8444 160.87 24.9699 161.405 25.9737C161.94 26.9775 161.271 28.1068 160.468 29.487C160.067 30.1144 160.201 30.9927 160.736 31.6201C161.806 32.8749 164.215 33.2513 167.025 32.4984C169.701 31.7456 171.306 30.8672 172.51 30.1144C174.383 28.9851 175.855 28.1068 178.799 28.8596C182.545 29.8634 181.609 34.757 181.073 38.5213C180.806 39.7761 180.538 41.4072 180.806 41.7837C180.94 42.0346 181.207 42.2856 181.341 42.662C181.475 42.913 181.742 43.2894 181.876 43.4149C181.876 43.4149 182.277 43.2894 183.348 41.7837C185.489 38.7722 189.636 33.2513 194.185 34.757C195.256 35.1334 195.791 35.7608 195.791 36.6392C195.925 39.5251 190.172 44.5442 186.693 45.7989L183.214 47.0537C182.813 48.8104 180.672 56.2134 179.334 58.472C179.2 58.5975 179.2 58.723 179.066 58.9739C178.264 60.6051 176.39 63.8675 172.912 65.6242C172.51 65.7496 172.109 65.6242 171.841 65.3732C171.707 64.9968 171.841 64.6204 172.109 64.3694C175.186 62.8637 176.792 59.8523 177.595 58.3465C177.728 58.0956 177.862 57.9701 177.862 57.8446C179.334 55.4606 181.609 46.4263 181.609 46.4263C181.609 46.1754 181.876 46.0499 182.01 45.9244L185.89 44.4187C188.834 43.2894 194.052 38.6468 193.918 36.6392C193.918 36.3882 193.918 36.2627 193.383 36.0118C190.305 35.008 187.228 38.5213 184.284 42.5365C183.08 44.1677 182.277 44.7951 181.475 44.7951C180.538 44.7951 180.137 44.0423 179.735 43.2894C179.602 43.0384 179.468 42.7875 179.2 42.5365C178.665 41.7837 178.799 40.5289 179.2 38.1449C179.735 35.008 180.404 30.7418 178.13 30.1144C175.855 29.487 174.785 30.1144 173.045 31.1182C171.707 31.9965 169.968 33.0003 167.158 33.7532C162.074 35.1334 159.933 33.2513 159.131 32.373C158.194 31.2437 158.06 29.738 158.729 28.6087C159.264 27.8558 159.8 26.7265 159.666 26.4756C159.666 26.4756 159.398 26.0991 157.793 25.9737C156.053 25.8482 153.511 26.852 151.103 27.7303C149.096 28.4832 146.955 29.3615 144.948 29.6125C144.814 29.738 144.547 29.738 144.279 29.738C143.744 32.2475 141.737 40.6544 140.8 43.4149C139.864 46.3008 138.793 55.5861 144.145 59.2249C148.828 62.3618 158.06 64.2439 162.475 65.1223C163.144 65.2477 163.813 65.3732 164.215 65.4987C164.616 65.6242 164.884 66.0006 164.75 66.377C164.884 66.8789 164.482 67.1299 164.215 67.1299ZM144.279 28.4832C144.279 28.6087 144.279 28.6087 144.279 28.4832C144.279 28.6087 144.279 28.6087 144.279 28.4832Z" fill="#011B26"/>
<path d="M141.469 39.7762C141.335 39.7762 141.202 39.7762 141.068 39.6507C137.054 37.6431 134.779 33.7533 133.976 30.7419C133.709 29.8636 133.441 28.2324 133.976 27.354C134.378 26.7267 135.047 26.4757 135.85 26.6012C137.188 26.7267 138.927 27.856 140.131 30.6164C141.603 33.8788 142.807 35.3845 142.807 35.3845C143.075 35.7609 143.075 36.1374 142.673 36.3883C142.272 36.6393 141.871 36.6393 141.603 36.2629C141.603 36.1374 140.265 34.6317 138.659 31.1183C137.589 28.8598 136.251 28.1069 135.582 27.9814C135.314 27.9814 135.181 28.1069 135.181 28.1069C134.779 28.9852 136.251 35.6355 141.737 38.2705C142.138 38.3959 142.272 38.8979 142.004 39.2743C142.004 39.6507 141.737 39.7762 141.469 39.7762Z" fill="#011B26"/>
<path d="M173.045 37.7685C172.912 37.7685 172.778 37.7685 172.644 37.7685C171.975 37.643 171.574 37.1411 171.306 36.5138C171.038 35.6354 169.165 34.5061 167.827 33.8788C167.426 33.7533 167.292 33.2514 167.426 32.875C167.56 32.4985 168.095 32.3731 168.496 32.4985C169.165 32.7495 172.376 34.3807 172.778 36.1373C172.778 36.2628 172.778 36.2628 172.912 36.2628C173.179 36.2628 173.581 36.1373 173.848 35.8864C173.982 35.6354 174.116 35.3845 173.848 35.1335C172.778 33.3769 172.109 32.3731 171.306 32.1221C170.905 31.9966 170.637 31.6202 170.771 31.2438C170.905 30.8673 171.306 30.6164 171.707 30.7419C173.313 31.1183 174.25 32.624 175.32 34.3807C175.721 35.1335 175.721 36.0119 175.186 36.7647C174.517 37.3921 173.714 37.7685 173.045 37.7685Z" fill="#011B26"/>
<path d="M145.215 32.7494C145.082 32.7494 145.082 32.7494 144.948 32.7494C144.011 32.4984 143.342 31.9965 143.209 31.2437C142.941 30.2399 143.744 29.236 143.878 29.236C144.145 28.9851 144.68 28.8596 144.948 29.236C145.215 29.487 145.349 29.9889 144.948 30.2399C144.814 30.3653 144.547 30.7418 144.68 30.9927C144.68 31.1182 144.948 31.2437 145.082 31.3691C145.751 31.1182 147.624 30.3653 149.631 30.3653C150.032 30.3653 150.434 30.1144 150.701 29.6125C150.969 29.1106 150.835 28.4832 150.835 28.2322C150.434 28.2322 150.166 28.1068 150.032 27.7303C149.898 27.3539 150.032 26.9775 150.434 26.852C150.969 26.601 151.504 26.7265 151.905 27.1029C152.574 27.7303 152.574 29.1106 152.173 30.1144C151.772 31.1182 150.835 31.7456 149.765 31.871C147.49 31.9965 145.617 32.8749 145.617 32.8749C145.483 32.6239 145.349 32.7494 145.215 32.7494Z" fill="#011B26"/>
<path d="M147.089 37.0153C146.018 36.6389 145.349 36.3879 144.68 36.2624C144.279 36.137 144.011 36.137 143.61 36.0115C143.209 35.886 142.807 35.886 142.138 35.7605C142.673 34.8822 143.878 34.3803 145.082 34.6313C146.286 35.0077 147.222 35.886 147.089 37.0153Z" fill="#011B26"/>
<path d="M161.271 39.023C161.806 38.3956 162.475 38.0191 163.278 37.7682C164.081 37.5172 164.884 37.5172 165.687 37.6427C166.489 37.8937 167.292 38.1446 167.827 38.6465C168.496 39.1484 168.898 39.7758 169.165 40.4032C168.363 40.1522 167.827 39.9013 167.158 39.6503C166.489 39.3994 165.954 39.2739 165.285 39.1484C164.75 39.023 164.081 38.8975 163.412 38.8975C162.743 39.023 162.074 39.023 161.271 39.023Z" fill="#011B26"/>
<path d="M151.638 47.6811H151.504C151.37 47.6811 148.962 47.1792 147.49 46.5518C146.955 46.3009 146.687 45.9245 146.553 45.4226C146.286 44.2933 147.089 43.164 147.222 42.913L151.103 35.8864C151.103 35.7609 151.236 35.7609 151.236 35.7609C152.039 35.008 152.842 34.8826 153.243 34.8826C154.448 35.008 155.117 36.1373 155.25 36.2628C155.384 36.3883 155.384 36.5138 155.384 36.7647C155.384 36.7647 154.581 42.1602 154.448 44.2933C154.314 47.0537 152.039 47.6811 152.039 47.6811C151.772 47.6811 151.772 47.6811 151.638 47.6811ZM152.307 36.6392L148.427 43.6659C148.159 44.0423 147.758 44.7952 147.891 45.0461C147.891 45.0461 147.891 45.1716 148.025 45.1716C149.096 45.6735 150.835 46.0499 151.504 46.1754C151.772 46.0499 152.574 45.548 152.708 44.1678C152.842 42.1602 153.511 37.894 153.645 36.7647C153.511 36.6392 153.243 36.3883 152.976 36.2628C152.842 36.2628 152.574 36.3883 152.307 36.6392Z" fill="#011B26"/>
<path d="M142.272 39.023C143.075 38.7721 143.343 38.8975 144.145 39.1485C146.152 39.9014 146.821 42.6618 146.42 43.7911C146.019 44.7949 144.547 43.6656 142.54 42.9128C141.871 42.6618 141.871 42.9128 141.336 42.6618L142.272 39.023Z" fill="#EC7C25"/>
<path d="M158.06 46.05C157.792 47.3048 160.334 47.0538 163.144 47.4302C166.088 47.8067 168.229 48.9359 168.496 47.6812C168.764 46.4264 166.891 43.164 163.947 42.7876C161.137 42.1602 158.328 44.6697 158.06 46.05Z" fill="#EC7C25"/>
<path d="M150.835 53.2019C152.575 52.7 154.046 52.449 155.518 52.0726C156.187 51.9471 156.856 51.5707 157.659 51.3197C158.328 51.0688 158.997 50.6923 159.933 50.3159C159.8 51.1943 159.264 51.9471 158.595 52.5745C157.926 53.2019 157.124 53.5783 156.187 53.8293C155.251 54.0802 154.314 54.2057 153.511 54.0802C152.441 53.9547 151.638 53.7038 150.835 53.2019Z" fill="#011B26"/>
<path d="M184.82 113.932C184.82 120.833 181.742 126.48 170.637 126.48C162.743 126.48 158.06 120.833 158.06 113.932C158.06 107.031 161.271 101.385 170.637 101.385C179.869 101.259 184.82 106.906 184.82 113.932Z" fill="#EC7C25"/>
<path d="M169.299 115.438C169.165 115.438 169.165 115.438 169.031 115.438C168.63 115.438 167.827 115.438 167.56 114.685C167.292 114.058 167.827 113.682 168.229 113.431C168.362 113.305 168.63 113.054 168.764 112.929C168.764 112.929 168.764 112.929 168.63 112.803C167.56 112.176 160.87 112.301 154.983 112.929C154.581 112.929 154.18 112.678 154.18 112.301C154.18 111.925 154.448 111.548 154.849 111.548C156.99 111.298 167.56 110.419 169.567 111.674C170.102 112.05 170.369 112.427 170.369 112.803C170.369 113.18 170.236 113.556 169.968 113.933C170.637 113.933 171.44 113.807 172.51 113.682C176.925 113.18 184.418 112.301 191.108 113.933C191.509 114.058 191.777 114.434 191.643 114.811C191.509 115.187 191.108 115.438 190.707 115.313C184.418 113.682 177.059 114.56 172.644 115.062C171.172 115.313 169.968 115.438 169.299 115.438Z" fill="#011B26"/>
<path d="M61.1909 30.4905C60.9233 30.4905 60.6557 30.365 60.5219 29.9886C59.7191 28.3574 59.7191 25.095 59.7191 24.4676L57.8459 18.4447C57.7122 18.1938 57.8459 17.9428 57.9797 17.8174C58.1135 17.6919 58.3811 17.5664 58.6487 17.5664L65.071 18.5702C65.3386 18.5702 66.9442 19.0721 67.2118 22.3345C67.3456 23.8402 67.8808 24.844 68.6835 26.2243C68.9511 26.6007 68.8173 26.9771 68.4159 27.2281C68.0146 27.479 67.6132 27.3536 67.3456 26.9771C66.409 25.4714 65.8738 24.3421 65.6062 22.46C65.4724 20.3269 64.6696 19.9505 64.6696 19.9505L59.4515 19.0721L60.9233 24.0912C60.9233 24.2167 60.9233 24.2166 60.9233 24.3421C60.9233 25.3459 60.9233 28.1064 61.5923 29.3612C61.7261 29.7376 61.5923 30.114 61.1909 30.365C61.3247 30.4905 61.1909 30.4905 61.1909 30.4905Z" fill="#011B26"/>
<path d="M89.5557 44.0423C89.4219 44.0423 89.2881 44.0423 89.1543 43.9168C87.4149 42.913 71.8944 34.1296 69.7537 30.6163C69.6199 30.3653 69.6199 30.1144 69.7537 29.8634C69.7537 29.8634 70.4227 28.8596 70.5565 27.4794C70.5565 27.103 70.9578 26.7265 71.3592 26.852C71.7606 26.852 72.162 27.2284 72.0282 27.6049C71.8944 28.8596 71.493 29.738 71.2254 30.2399C73.5 33.2513 85.2742 40.1525 89.8233 42.7875C90.2247 43.0384 90.3585 43.4149 90.0909 43.7913C90.0909 43.9168 89.8233 44.0423 89.5557 44.0423Z" fill="#011B26"/>
<path d="M168.229 292.862C168.229 292.862 167.56 282.196 166.891 281.694C166.222 281.192 158.595 282.196 156.99 281.443C155.384 280.69 154.581 284.706 153.511 285.208C152.441 285.709 150.3 283.702 151.772 281.192C153.243 278.683 147.222 274.166 145.751 274.291C144.279 274.417 134.645 278.055 127.287 278.432C119.928 278.808 114.041 277.554 112.034 278.557C110.027 279.561 108.154 280.69 110.963 283.702C113.773 286.713 120.329 292.862 129.026 292.862C137.723 292.987 139.73 291.607 140.8 290.478C141.871 289.223 143.61 287.09 144.68 289.348C145.751 291.481 145.884 294.493 147.891 295.12C149.898 295.748 163.68 298.759 168.229 292.862Z" fill="#011B26"/>
<path d="M155.384 303.653C153.109 303.653 151.102 303.402 149.363 303.025C145.884 302.272 143.743 300.641 141.87 299.135C141.335 298.759 140.8 298.383 140.398 298.006C139.462 297.379 137.054 297.63 134.378 297.881C131.434 298.132 127.688 298.634 123.674 298.006C115.378 296.751 108.287 291.23 106.28 288.846C103.872 285.96 104.808 283.451 106.012 281.067C107.217 278.934 109.09 278.683 109.893 278.934C110.294 279.059 110.562 279.436 110.428 279.812C110.294 280.189 109.893 280.44 109.491 280.314C109.357 280.314 108.153 280.063 107.35 281.694C106.146 283.827 105.477 285.71 107.35 287.843C109.491 290.352 116.449 295.371 123.808 296.375C127.554 296.877 131.166 296.501 134.11 296.25C137.187 295.873 139.729 295.622 141.201 296.626C141.736 297.002 142.272 297.379 142.807 297.755C144.68 299.136 146.553 300.641 149.63 301.394C153.778 302.398 160.736 302.147 164.883 300.139C168.764 298.257 169.433 296.5 167.559 292.987C167.426 292.611 167.559 292.234 167.961 291.983C168.362 291.858 168.764 291.983 169.031 292.36C171.306 296.626 170.369 299.261 165.686 301.52C162.743 303.025 158.862 303.653 155.384 303.653Z" fill="#011B26"/>
<path d="M148.561 279.31C148.293 279.31 148.025 279.185 147.892 278.934C147.758 278.557 147.892 278.181 148.159 277.93C148.293 277.804 151.772 275.671 155.518 260.865C155.652 260.489 156.053 260.238 156.455 260.363C156.856 260.489 157.124 260.865 156.99 261.242C152.976 276.801 149.23 279.059 148.828 279.185C148.828 279.185 148.694 279.31 148.561 279.31Z" fill="#011B26"/>
<path d="M164.349 284.329C163.947 284.329 163.546 284.078 163.546 283.702C163.144 278.181 170.905 263.124 171.172 262.496C171.306 262.12 171.841 261.994 172.243 262.12C172.644 262.245 172.778 262.747 172.644 263.124C172.51 263.249 164.75 278.557 165.151 283.702C165.151 283.953 164.884 284.329 164.349 284.329Z" fill="#011B26"/>
<path d="M170.37 263.5C165.285 263.5 156.187 260.99 151.772 258.606C147.223 256.097 148.561 246.812 149.765 238.656C149.899 237.652 150.032 236.648 150.166 235.77C150.701 231.88 150.568 224.351 150.434 217.199C150.3 208.667 150.166 200.511 150.969 197.248C152.574 191.1 165.954 167.887 166.489 166.883C166.757 166.507 167.158 166.381 167.56 166.632C167.961 166.883 168.095 167.26 167.827 167.636C167.694 167.887 153.912 191.602 152.441 197.625C151.638 200.762 151.772 209.169 151.905 217.199C152.039 224.477 152.173 232.005 151.638 236.021C151.504 237.024 151.37 238.028 151.236 239.032C150.166 246.435 148.828 255.469 152.441 257.477C156.99 259.987 167.694 262.747 171.708 262.12C173.581 261.743 180.271 259.987 183.883 250.952C186.827 243.549 187.763 219.207 187.763 216.697C187.763 216.07 186.425 214.062 185.489 212.557C183.615 209.671 182.813 208.165 183.615 207.412C184.284 206.785 185.355 207.161 185.756 207.412C187.496 208.165 189.235 209.42 190.439 210.298C190.707 210.549 191.108 210.8 191.376 210.925C191.376 210.8 191.376 210.8 191.376 210.674C191.108 209.545 190.707 208.541 190.305 207.663C189.636 205.906 189.235 204.903 189.904 204.275C190.172 203.899 190.707 203.773 191.376 203.899C193.383 204.275 194.453 204.15 195.39 203.397C196.46 202.393 214.79 174.412 216.128 168.514C217.6 161.864 217.466 154.461 215.861 151.952C213.988 149.066 211.713 146.18 211.579 146.18C211.312 145.803 211.445 145.427 211.713 145.176C212.114 144.925 212.516 145.05 212.783 145.301C212.783 145.301 215.192 148.313 217.065 151.199C219.206 154.336 218.938 162.617 217.6 168.765C216.262 174.914 197.664 203.271 196.46 204.401C194.988 205.781 192.981 205.655 191.108 205.279C191.242 205.655 191.51 206.408 191.777 207.161C192.045 208.039 192.446 209.043 192.848 210.173C193.115 211.051 193.383 212.055 192.58 212.557C191.777 213.058 190.974 212.431 189.503 211.302C188.298 210.423 186.827 209.294 185.221 208.541C185.221 208.541 185.221 208.541 185.087 208.541C185.489 209.294 186.291 210.674 186.96 211.678C188.432 214.062 189.369 215.568 189.369 216.572C189.369 216.823 188.7 243.173 185.489 251.329C181.475 261.116 174.25 262.998 172.109 263.374C171.574 263.5 171.039 263.5 170.37 263.5Z" fill="#011B26"/>
<path d="M240.747 240.538C240.078 240.538 239.409 240.538 238.874 240.412C235.663 240.162 224.557 236.774 214.656 233.762C208.769 231.88 203.15 230.249 200.34 229.496C192.847 227.614 188.165 222.218 187.897 221.967C187.629 221.591 187.629 221.215 188.031 220.964C188.298 220.713 188.834 220.713 189.101 221.089C189.101 221.089 193.65 226.359 200.742 228.116C203.551 228.869 209.171 230.5 215.058 232.382C224.29 235.268 235.93 238.781 238.874 239.032C243.423 239.409 251.049 238.405 253.725 234.641C256.267 230.751 256.669 221.591 256 219.207L255.866 218.956C255.063 216.196 253.056 209.796 246.768 207.789C238.874 205.279 224.959 201.766 223.487 202.017C223.219 202.142 222.818 202.77 222.684 203.272C222.417 203.899 222.015 204.526 221.346 204.652C220.544 204.652 220.142 203.899 220.008 203.522C219.741 203.021 219.473 202.393 219.206 201.766C218.804 200.762 217.868 198.754 217.332 198.629C216.797 199.005 216.128 199.758 215.593 200.511C214.389 202.017 213.586 203.021 212.649 202.644C211.847 202.393 211.847 201.389 211.847 201.013C211.847 200.135 211.98 199.131 212.248 198.378C212.649 196.37 212.649 195.617 211.178 195.116C207.699 193.861 207.03 188.591 207.03 186.583C207.03 186.207 207.431 185.83 207.833 185.83C208.234 185.83 208.636 186.207 208.636 186.583C208.636 187.838 209.171 192.732 211.847 193.735C214.656 194.739 214.255 196.747 213.854 198.629C213.72 199.256 213.586 200.009 213.586 200.762C213.987 200.386 214.389 199.884 214.656 199.507C215.325 198.629 215.994 197.876 216.663 197.5C217.199 197.123 217.734 197.123 218.001 197.249C219.206 197.625 220.008 199.256 220.811 201.138C221.079 201.64 221.346 202.268 221.48 202.644C221.882 201.891 222.283 200.887 223.353 200.637C225.36 200.135 242.219 204.777 247.437 206.408C254.528 208.667 256.669 215.819 257.472 218.58L257.605 218.831C258.408 221.466 258.141 231.127 255.197 235.393C252.387 239.534 245.296 240.538 240.747 240.538Z" fill="#011B26"/>
<path d="M344.172 288.093C343.637 288.093 343.37 288.093 343.37 288.093C342.968 288.093 342.701 287.717 342.701 287.215C342.701 286.839 343.236 286.588 343.637 286.588C343.771 286.588 353.003 287.591 361.165 273.036C368.256 260.489 368.524 256.724 368.39 255.72C368.122 255.846 367.855 256.222 367.453 256.473C366.784 257.101 365.848 257.854 364.643 258.355C363.038 258.983 346.447 272.158 343.102 286.086C342.968 286.462 342.567 286.713 342.165 286.588C341.764 286.462 341.496 286.086 341.63 285.709C345.243 271.154 362.235 257.603 364.108 256.975C365.045 256.599 365.714 255.971 366.383 255.47C367.052 254.842 367.587 254.34 368.39 254.215C368.791 254.089 369.326 254.34 369.594 254.717C371.467 256.975 365.981 267.641 362.503 273.789C355.01 286.964 346.715 288.093 344.172 288.093Z" fill="#011B26"/>
<path d="M345.377 286.337C345.109 286.337 344.975 286.211 344.842 286.086C344.574 285.835 344.574 285.333 344.975 285.082C345.109 284.956 355.545 276.675 360.094 267.641C360.228 267.264 360.763 267.139 361.165 267.264C361.566 267.39 361.7 267.892 361.566 268.268C356.883 277.553 346.447 285.835 346.046 286.211C345.778 286.337 345.511 286.337 345.377 286.337Z" fill="#011B26"/>
<path d="M343.503 268.895C342.968 268.895 342.701 268.519 342.701 268.143C343.771 256.222 349.926 243.926 361.165 231.629C361.7 231.127 361.967 230.751 362.101 230.625C362.369 230.374 362.503 229.872 362.77 229.37C363.707 227.739 364.376 226.484 365.446 226.735C366.383 226.986 366.784 227.99 366.517 233.009C365.981 243.047 358.623 262.496 358.355 263.249C358.221 263.625 357.82 263.876 357.418 263.751C357.017 263.625 356.749 263.249 356.883 262.873C357.017 262.622 364.376 242.922 364.911 233.009C365.045 230.5 365.045 229.245 364.911 228.618C364.643 228.994 364.242 229.621 364.108 229.998C363.841 230.5 363.573 231.002 363.305 231.378C363.172 231.629 362.77 232.005 362.235 232.507C351.264 244.553 345.243 256.599 344.172 268.268C344.306 268.519 343.905 268.895 343.503 268.895Z" fill="#011B26"/>
<path d="M343.905 276.048C343.771 276.048 343.771 276.048 343.637 276.048C343.236 275.922 342.968 275.546 343.102 275.169C347.651 260.74 358.087 242.546 358.221 242.295C358.489 241.918 358.89 241.793 359.291 242.044C359.693 242.295 359.827 242.671 359.559 243.048C359.425 243.173 348.989 261.242 344.574 275.671C344.574 275.797 344.306 276.048 343.905 276.048Z" fill="#011B26"/>
<path d="M339.222 286.588C339.088 286.588 338.82 286.462 338.687 286.337C338.151 285.835 325.574 274.291 327.046 259.987C328.384 247.439 331.595 235.644 334.138 234.139C334.673 233.888 335.074 233.888 335.342 234.013C336.813 234.515 337.215 236.648 337.616 239.283C337.884 241.291 338.285 243.549 339.088 245.557C341.229 250.325 346.447 272.032 343.637 283.953C343.503 284.329 343.102 284.58 342.701 284.455C342.299 284.329 342.032 283.953 342.165 283.576C344.841 272.032 339.757 250.827 337.75 246.184C336.813 244.051 336.412 241.667 336.144 239.534C335.877 237.903 335.609 235.77 334.94 235.393C333.469 236.272 329.99 246.184 328.652 260.238C327.314 273.915 339.623 285.207 339.757 285.333C340.025 285.584 340.025 286.086 339.757 286.337C339.623 286.588 339.489 286.588 339.222 286.588Z" fill="#011B26"/>
<path d="M340.292 284.957C340.024 284.957 339.757 284.831 339.623 284.58C332.933 270.652 331.863 251.204 331.863 251.078C331.863 250.702 332.13 250.325 332.532 250.325C332.933 250.325 333.335 250.576 333.335 250.953C333.335 251.204 334.539 270.402 340.961 283.953C341.095 284.329 340.961 284.706 340.56 284.957C340.56 284.831 340.426 284.957 340.292 284.957Z" fill="#011B26"/>
<path d="M339.356 248.945C338.954 248.945 338.553 248.694 338.553 248.317C337.349 229.12 345.778 212.682 349.926 204.652C350.862 202.77 351.665 201.264 351.933 200.386C352.869 197.625 353.94 197.123 354.742 197.249C355.946 197.374 357.552 198.754 357.82 208.416C358.221 220.713 354.341 242.169 354.341 242.42C354.207 242.797 353.94 243.047 353.404 243.047C353.003 242.922 352.735 242.546 352.735 242.169C352.735 241.918 356.615 220.587 356.214 208.542C355.946 199.507 354.475 198.754 354.475 198.754C354.341 198.754 353.94 199.256 353.404 200.887C353.137 201.766 352.334 203.272 351.264 205.279C347.25 213.059 338.954 229.371 340.025 248.192C340.158 248.568 339.891 248.945 339.356 248.945Z" fill="#011B26"/>
<path d="M343.102 265.759C342.701 265.759 342.433 265.508 342.299 265.131C342.032 262.998 342.834 259.61 344.44 253.588C345.243 250.576 346.179 246.812 347.25 242.169C350.327 228.618 352.2 209.796 352.2 209.545C352.2 209.169 352.602 208.918 353.003 208.918C353.404 208.918 353.806 209.294 353.672 209.671C353.672 209.922 351.799 228.743 348.721 242.42C347.651 247.063 346.715 250.827 345.912 253.964C344.44 259.861 343.637 262.998 343.905 265.006C344.039 265.382 343.637 265.759 343.102 265.759C343.236 265.759 343.236 265.759 343.102 265.759Z" fill="#011B26"/>
<path d="M355.143 291.732C354.876 291.732 354.475 291.481 354.341 291.23C354.207 290.854 354.475 290.478 354.876 290.352C355.411 290.227 355.946 290.101 356.481 289.85C356.348 289.85 356.348 289.725 356.214 289.725C356.08 289.599 355.812 289.223 355.946 288.721C356.08 288.094 356.615 287.341 357.15 286.588C357.15 286.462 357.284 286.462 357.284 286.337C354.341 287.341 350.327 288.47 347.651 287.341C347.249 287.215 347.116 286.713 347.249 286.337C347.383 285.96 347.918 285.835 348.32 285.96C350.996 287.09 355.679 285.333 357.15 284.831C357.686 284.58 358.756 284.329 359.291 284.957C359.826 285.584 359.291 286.337 358.622 287.341C358.355 287.717 358.087 288.094 357.953 288.47C358.355 288.344 359.024 288.219 359.425 288.094C360.763 287.717 362.101 287.341 363.439 287.341C364.242 287.341 364.509 287.717 364.643 288.094C364.777 288.721 364.777 289.223 355.679 291.858C355.277 291.732 355.277 291.732 355.143 291.732Z" fill="#011B26"/>
<path d="M336.679 286.211C336.546 286.211 336.412 286.211 336.278 286.086C336.144 285.96 333.067 284.455 330.525 281.945C329.321 280.69 328.384 280.314 327.849 280.439C327.715 280.439 327.581 280.565 327.581 280.816C327.448 281.443 327.046 281.569 326.912 281.694C326.243 281.945 325.441 281.443 324.638 280.816C324.638 280.816 324.504 280.69 324.37 280.69C324.37 280.816 324.37 280.816 324.37 280.941C324.504 282.447 324.772 284.58 323.032 285.333C322.631 285.458 322.229 285.333 321.962 284.957C321.828 284.58 321.962 284.204 322.363 283.953C323.032 283.702 322.898 281.945 322.765 280.941C322.631 279.812 322.631 279.185 323.3 278.808C323.969 278.432 324.772 278.934 325.574 279.561C325.708 279.686 325.976 279.937 326.243 280.063C326.511 279.561 326.912 279.185 327.447 279.059C328.116 278.808 329.588 278.808 331.595 280.941C333.87 283.325 336.813 284.706 336.813 284.706C337.215 284.831 337.348 285.333 337.081 285.709C337.215 286.086 336.947 286.211 336.679 286.211Z" fill="#011B26"/>
<path d="M68.2817 285.333C67.0775 285.333 65.6057 285.208 64.134 285.082C58.1131 284.329 49.1486 281.318 41.5222 271.782C28.8114 255.846 28.2762 242.797 28.1424 237.276C28.1424 236.397 28.1424 235.77 28.0086 235.268C27.741 232.758 28.0086 229.747 29.6142 229.12C30.0156 228.994 30.8184 228.869 31.7549 229.873C32.4239 230.625 32.5577 231.504 32.6915 232.382C32.9591 234.013 33.2267 235.77 37.1068 237.903C45.0009 242.169 71.359 258.105 78.7179 281.694C78.8517 282.071 78.5841 282.447 78.1827 282.573C77.7813 282.698 77.3799 282.447 77.2461 282.071C70.1548 258.983 44.1981 243.424 36.3041 239.158C31.8887 236.774 31.4874 234.39 31.2198 232.633C31.086 231.88 30.9522 231.253 30.5508 230.876C30.417 230.625 30.2832 230.625 30.1494 230.625C29.8818 230.751 29.2128 232.382 29.6142 235.143C29.6142 235.644 29.748 236.397 29.748 237.276C30.0156 242.671 30.417 255.344 42.8601 271.029C50.219 280.189 58.5145 283.074 64.4016 283.827C70.69 284.58 75.2391 283.2 75.3729 283.2C75.7743 283.074 76.1757 283.325 76.3095 283.702C76.4433 284.078 76.1757 284.455 75.7743 284.58C75.5067 284.455 72.697 285.333 68.2817 285.333Z" fill="#011B26"/>
<path d="M75.6407 282.698C75.6407 282.698 75.5069 282.698 75.6407 282.698C74.9717 282.573 63.1975 280.565 50.4868 269.899C37.776 259.234 33.8959 244.679 33.8959 244.553C33.7621 244.177 34.0297 243.8 34.4311 243.675C34.8325 243.549 35.2339 243.8 35.3677 244.177C35.3677 244.302 39.114 258.356 51.5572 268.77C64.0003 279.185 75.7745 281.192 75.9083 281.192C76.3097 281.318 76.5773 281.694 76.5773 282.071C76.3097 282.447 76.0421 282.698 75.6407 282.698Z" fill="#011B26"/>
<path d="M83.2676 282.447C82.8662 282.447 82.5986 282.196 82.4648 281.82C82.331 281.443 82.7324 281.067 83.1338 280.941C83.2676 280.941 97.8516 278.055 98.3867 252.709C99.0557 224.728 93.0348 211.428 89.2885 207.914C88.4857 207.161 87.8167 206.785 87.5491 206.91C86.0774 207.412 85.9436 213.561 85.9436 217.325C85.8098 222.219 83.2676 226.987 79.7889 233.511C78.5847 235.77 77.2467 238.28 75.9087 241.04C70.6906 251.58 73.5004 269.774 73.5004 270.025C73.5004 270.401 73.2328 270.778 72.8314 270.903C72.43 271.029 72.0286 270.652 71.8948 270.276C71.761 269.523 68.9512 251.455 74.4369 240.538C75.7749 237.652 77.2467 235.143 78.4509 232.884C81.7958 226.485 84.338 221.842 84.338 217.325C84.4718 210.8 84.7394 206.409 86.8801 205.656C88.3519 205.028 89.8237 206.534 90.3589 206.91C95.577 211.804 100.528 227.865 99.8585 252.835C99.1895 279.436 83.9366 282.322 83.2676 282.447Z" fill="#011B26"/>
<path d="M65.071 288.972C60.522 288.846 60.2544 288.093 60.2544 287.717C60.1206 287.215 60.5219 286.713 61.3247 286.462C62.7965 285.835 63.8669 285.96 64.8035 285.96C65.6062 285.96 66.409 286.086 67.4794 285.709C69.4863 285.082 69.8877 284.329 69.8877 284.329C70.0215 283.953 70.4229 283.702 70.8243 283.827C71.2257 283.953 71.4933 284.329 71.3595 284.705C71.3595 284.956 70.8243 286.211 68.0146 287.089C66.6766 287.466 65.6062 287.466 64.8035 287.34C64.1345 287.34 63.7331 287.34 63.0641 287.34C63.7331 287.466 64.4021 287.466 65.2048 287.466C65.6062 287.466 66.0076 287.842 66.0076 288.219C65.8738 288.595 65.6062 288.972 65.071 288.972Z" fill="#011B26"/>
<path d="M88.6193 284.831C88.3517 284.831 88.2179 284.706 88.0841 284.58C87.8165 284.329 87.8165 283.827 88.0841 283.576C88.6193 283.2 89.0207 282.572 89.4221 282.196C89.4221 282.196 89.4221 282.196 89.2883 282.321C88.7531 282.949 87.9503 283.827 86.8799 283.325C85.5419 282.698 85.1405 281.318 85.1405 281.067C85.0067 280.69 85.2743 280.314 85.6757 280.188C86.0771 280.063 86.4785 280.314 86.6123 280.69C86.7461 280.941 87.0137 281.694 87.5489 281.945C87.5489 281.82 87.9503 281.443 88.0841 281.318C88.6193 280.69 89.5559 279.686 90.76 280.439C91.1614 280.69 91.2952 280.941 91.2952 281.443C91.429 282.572 89.8235 284.078 89.0207 284.706C89.0207 284.706 88.7531 284.831 88.6193 284.831Z" fill="#011B26"/>
<path d="M83.1337 279.31C82.9999 279.31 82.8661 279.31 82.8661 279.185C82.4647 279.059 82.3309 278.557 82.4647 278.181C82.5985 277.93 94.5064 252.709 90.6263 222.595C90.6263 222.219 90.8939 221.842 91.2953 221.842C91.6967 221.717 92.0981 222.093 92.0981 222.469C95.9781 253.086 83.8027 278.557 83.8027 278.808C83.6689 279.185 83.4013 279.31 83.1337 279.31Z" fill="#011B26"/>
<path d="M72.1623 267.39C71.8947 267.39 71.6271 267.265 71.4933 267.014C71.3595 266.888 61.3247 247.941 64.5358 219.709C66.5428 201.892 70.8243 190.975 73.5002 183.823C75.1058 179.808 76.0424 177.173 75.7748 175.542C75.641 174.663 74.4368 167.135 76.5776 166.256C76.979 166.005 77.7817 166.005 78.5845 167.009C80.8591 169.644 87.9503 189.971 87.5489 206.785C87.5489 207.162 87.1475 207.538 86.7461 207.538C86.3448 207.538 85.9434 207.162 85.9434 206.785C86.3448 189.846 79.1197 170.021 77.3803 167.888C77.2465 167.762 77.2465 167.762 77.1128 167.637C76.7114 168.389 76.5776 171.526 77.2465 175.291C77.6479 177.298 76.5776 180.059 74.8382 184.325C72.0285 191.477 67.8807 202.268 65.8738 219.96C62.6627 247.816 72.5636 266.261 72.6974 266.512C72.8312 266.888 72.6974 267.265 72.2961 267.516C72.4299 267.265 72.2961 267.39 72.1623 267.39Z" fill="#011B26"/>
<path d="M72.43 251.078C72.0286 251.078 71.6272 250.827 71.6272 250.325C71.6272 250.074 71.4934 243.926 74.0355 230.751C76.5776 217.701 79.3874 186.207 79.3874 185.83C79.3874 185.454 79.7888 185.203 80.1902 185.203C80.5915 185.203 80.9929 185.579 80.8591 185.956C80.8591 186.332 77.9156 217.827 75.5073 231.002C72.9652 244.051 73.2327 250.2 73.2327 250.325C73.2327 250.701 72.8314 250.952 72.43 251.078Z" fill="#011B26"/>
<path d="M53.2969 250.074C53.0293 250.074 52.8956 249.948 52.7618 249.823C52.628 249.697 41.5228 237.652 38.8468 221.34C36.1709 205.153 34.9667 199.758 33.2273 197.374C32.157 195.994 32.1569 194.488 33.0935 193.735C33.6287 193.233 35.7695 192.104 40.5862 195.743C46.8747 200.636 61.7262 218.328 65.4725 229.872C65.6063 230.249 65.3387 230.625 64.9373 230.751C64.5359 230.876 64.1345 230.625 64.0007 230.249C60.3882 219.081 45.6705 201.389 39.6496 196.746C36.5723 194.488 34.8329 194.237 34.2977 194.739C34.0301 194.99 34.0301 195.743 34.5653 196.496C36.5723 199.131 37.6426 204.401 40.4524 221.089C43.1283 236.899 53.9659 248.694 53.9659 248.819C54.2335 249.07 54.2335 249.572 53.8321 249.823C53.5645 249.948 53.4307 250.074 53.2969 250.074Z" fill="#011B26"/>
<path d="M70.289 263.375C70.0215 263.375 69.8877 263.249 69.7539 263.124C69.7539 262.998 63.1978 255.721 54.6348 244.051C45.938 232.257 41.3888 211.051 41.1213 210.173C40.9875 209.796 41.2551 209.42 41.7902 209.294C42.1916 209.169 42.593 209.42 42.7268 209.922C42.7268 210.173 47.5435 231.755 55.9727 243.298C64.5358 254.968 70.958 262.245 70.958 262.245C71.2256 262.496 71.2256 262.998 70.8242 263.249C70.6904 263.249 70.5566 263.375 70.289 263.375Z" fill="#011B26"/>
<path d="M47.6774 204.652C47.4098 204.652 47.0085 204.401 46.8747 204.15C46.8747 204.024 41.9242 188.591 40.4524 178.553C40.051 176.168 39.7834 174.161 39.5158 172.53C38.713 168.263 38.4454 166.632 39.382 165.879C40.051 165.377 40.8538 165.503 41.1214 165.503C43.6635 166.005 64.8035 181.188 69.8878 198.629C70.0216 199.005 69.754 199.382 69.3526 199.507C68.9512 199.633 68.5498 199.382 68.416 199.005C63.5993 182.442 43.1283 167.385 40.8538 166.883C40.5862 166.883 40.4524 166.883 40.4524 166.883C40.1848 167.26 40.5862 169.518 41.1214 172.279C41.389 173.91 41.7904 175.918 42.1918 178.302C43.6635 188.214 48.4802 203.522 48.614 203.648C48.7478 204.024 48.4802 204.401 48.0788 204.526C47.8112 204.652 47.8112 204.652 47.6774 204.652Z" fill="#011B26"/>
<path d="M64.8033 226.359C64.4019 226.359 64.1343 226.108 64.0005 225.732C64.0005 225.606 62.5287 218.329 56.5078 210.173C50.3532 201.64 46.473 182.819 46.3392 181.941C46.2054 181.564 46.6068 181.188 47.0082 181.062C47.4096 180.937 47.811 181.313 47.9448 181.69C47.9448 181.941 51.8249 201.138 57.8458 209.294C64.0005 217.827 65.4723 225.104 65.6061 225.481C65.7399 225.857 65.3385 226.234 64.9371 226.359C64.8033 226.359 64.8033 226.359 64.8033 226.359Z" fill="#011B26"/>
<path d="M73.9014 185.579C73.5 185.579 73.0986 185.203 73.0986 184.826C73.3662 177.925 72.4296 173.283 69.8875 168.514L69.6199 168.012C64.4018 158.476 58.381 147.058 57.4444 143.043C56.9092 140.533 55.9726 139.529 55.5712 139.529C55.4374 139.529 54.3671 139.655 53.0291 143.796C50.7546 150.948 56.1064 177.298 56.2402 177.674C56.374 178.051 56.1064 178.427 55.5712 178.553C55.1698 178.678 54.7685 178.427 54.6347 177.925C54.3671 176.796 49.149 150.822 51.5573 143.419C52.7615 139.78 54.0995 138.149 55.5712 138.149C55.5712 138.149 55.5712 138.149 55.705 138.149C57.712 138.275 58.6486 141.161 59.05 142.792C59.9865 147.058 68.0143 161.864 71.0917 167.385L71.3593 167.887C74.169 172.906 75.1056 177.674 74.838 184.952C74.7042 185.203 74.3028 185.579 73.9014 185.579Z" fill="#011B26"/>
<path d="M68.4158 197.123C68.0145 197.123 67.6131 196.872 67.6131 196.496C67.6131 196.37 66.8103 187.211 66.1413 181.313C65.4723 175.541 58.1133 164.625 57.9796 164.499C57.712 164.123 57.8458 163.747 58.2472 163.496C58.6485 163.245 59.0499 163.37 59.3175 163.747C59.5851 164.248 66.9441 175.039 67.6131 181.188C68.4158 187.085 69.0848 196.37 69.0848 196.37C69.2186 196.747 68.8172 197.123 68.4158 197.123Z" fill="#011B26"/>
</svg>
