<svg xmlns="http://www.w3.org/2000/svg" id="prefix__ALERT_ICON" width="24" height="24" data-name="ALERT ICON" viewBox="0 0 24 24">
    <g id="prefix__Rectangle_2576" data-name="Rectangle 2576" style="stroke:#707070;opacity:0;fill:#d45858">
        <path d="M0 0H24V24H0z" style="stroke:none"/>
        <path d="M0.5 0.5H23.5V23.5H0.5z" style="fill:none"/>
    </g>
    <path id="prefix__Path_10" d="M11 15h2v2h-2zm0-8h2v6h-2zm8-4h-4.18a2.988 2.988 0 0 0-5.64 0H5a1.752 1.752 0 0 0-.4.04 2.021 2.021 0 0 0-1.44 1.19A1.926 1.926 0 0 0 3 5v14a2.052 2.052 0 0 0 .16.78 2.119 2.119 0 0 0 .43.64 2.008 2.008 0 0 0 1.01.55A2.6 2.6 0 0 0 5 21h14a2.006 2.006 0 0 0 2-2V5a2.006 2.006 0 0 0-2-2zm-7-.25a.75.75 0 1 1-.75.75.755.755 0 0 1 .75-.75zM19 19H5V5h14z" data-name="Path 10" transform="translate(0 1)" style="fill:#d45858"/>
</svg>
