<svg xmlns="http://www.w3.org/2000/svg" id="prefix__Componente_193_3" width="48" height="48" data-name="Componente 193 – 3" viewBox="0 0 48 48">
    <defs>
        <style>
            .prefix__cls-2{fill:none;stroke:#ffbb01;stroke-linecap:round;stroke-linejoin:round;stroke-width:1.5px}
        </style>
    </defs>
    <path id="prefix__Retângulo_2452" d="M0 0H48V48H0z" data-name="Retângulo 2452" style="fill:none"/>
    <g id="prefix__Icon_feather-copy" data-name="Icon feather-copy" transform="translate(15 15)">
        <path id="prefix__Caminho_2204" d="M15.228 13.5H23a1.728 1.728 0 0 1 1.728 1.728V23A1.728 1.728 0 0 1 23 24.73h-7.772A1.728 1.728 0 0 1 13.5 23v-7.772a1.728 1.728 0 0 1 1.728-1.728z" class="prefix__cls-2" data-name="Caminho 2204" transform="translate(-7.134 -7.134)"/>
        <path id="prefix__Caminho_2205" d="M5.592 14.23h-.864A1.728 1.728 0 0 1 3 12.5V4.728A1.728 1.728 0 0 1 4.728 3H12.5a1.728 1.728 0 0 1 1.73 1.728v.864" class="prefix__cls-2" data-name="Caminho 2205" transform="translate(-3 -3)"/>
    </g>
</svg>
